<mxfile host="65bd71144e">
    <diagram id="xwclv4-olKKUUjTjcmxL" name="Page-1">
        <mxGraphModel dx="808" dy="436" grid="1" gridSize="10" guides="1" tooltips="1" connect="1" arrows="1" fold="1" page="1" pageScale="1" pageWidth="850" pageHeight="1100" math="0" shadow="0">
            <root>
                <mxCell id="0"/>
                <mxCell id="1" parent="0"/>
                <mxCell id="2" value="register_rservice" style="rounded=0;whiteSpace=wrap;html=1;" vertex="1" parent="1">
                    <mxGeometry x="120" y="140" width="120" height="60" as="geometry"/>
                </mxCell>
                <mxCell id="3" value="service_provider" style="rounded=0;whiteSpace=wrap;html=1;" vertex="1" parent="1">
                    <mxGeometry x="340" y="80" width="120" height="60" as="geometry"/>
                </mxCell>
                <mxCell id="4" value="name&lt;br&gt;precio&lt;br&gt;image" style="rounded=0;whiteSpace=wrap;html=1;" vertex="1" parent="1">
                    <mxGeometry x="340" y="170" width="120" height="60" as="geometry"/>
                </mxCell>
                <mxCell id="5" value="registrar -&amp;gt;supabase" style="rounded=0;whiteSpace=wrap;html=1;" vertex="1" parent="1">
                    <mxGeometry x="340" y="250" width="120" height="60" as="geometry"/>
                </mxCell>
                <mxCell id="6" value="registrar_imagen" style="rounded=0;whiteSpace=wrap;html=1;" vertex="1" parent="1">
                    <mxGeometry x="340" y="320" width="120" height="60" as="geometry"/>
                </mxCell>
            </root>
        </mxGraphModel>
    </diagram>
</mxfile>